<svg xmlns="http://www.w3.org/2000/svg" data-name="Layer 1" viewBox="0 0 64 64" id="man"><path fill="#00aeef" d="m62.87,53.34l-2.06-6.79c-1.17-4.15-4.48-7.38-8.6-8.43l-.58-.18s-.01,0-.02,0c-.05-.02-.1-.03-.15-.05h0c-.81-.22-1.68.02-2.37.71-1.65,1.92-4.38,4.22-8.02,4.22s-6.37-2.27-8.03-4.18c-.56-.64-1.47-.92-2.29-.73-.1.02-.18.05-.24.07l-.53.16c-4.16,1.08-7.47,4.31-8.64,8.43l-2.07,6.84c-.14.5-.12,1.02.02,1.5H3.77c-.32,0-.52-.19-.6-.3-.16-.2-.21-.47-.14-.7l2.07-6.83c.97-3.45,3.74-6.15,7.26-7.07l.44-.13c.08,0,.17-.01.25-.04.12-.04.26.02.33.1,1.86,2.13,4.04,3.64,6.3,4.36.53.17,1.09-.12,1.26-.65.17-.53-.12-1.09-.65-1.26-1.92-.61-3.79-1.91-5.4-3.77-.55-.63-1.4-.91-2.21-.75h-.02c-.1,0-.2.01-.29.04l-.54.17c-4.16,1.08-7.47,4.31-8.63,8.43l-2.07,6.84c-.23.86-.06,1.76.48,2.46.53.69,1.33,1.08,2.19,1.08h17.8c.13.02.26.04.39.04h38.29c.91-.03,1.72-.47,2.24-1.19.5-.7.64-1.59.38-2.42Zm-2.01,1.27c-.15.21-.4.34-.65.35H21.96c-.32,0-.51-.19-.6-.3-.16-.2-.21-.47-.14-.7l2.07-6.83c.97-3.45,3.74-6.15,7.26-7.07l.52-.16c.08-.02.14-.04.19-.06.11-.02.24.03.3.1,2.73,3.14,6.12,4.87,9.53,4.87s6.82-1.75,9.49-4.86c.06-.06.21-.18.36-.15.04.01.08.03.12.04h0s.63.19.63.19c3.47.89,6.24,3.59,7.22,7.07l2.06,6.81s0,0,0,0c.1.33-.02.57-.1.68Z"></path><path fill="#00aeef" d="m22.9,39.04c2.51,0,4.89-1.3,6.81-3.41,1.84.31,3.67.54,5.49.69,1.69,1.65,3.72,2.63,5.88,2.63s4.22-1,5.91-2.66c3.51-.33,6.91-.89,10.1-1.67l1.31-.33c.58-.18,1.03-.6,1.25-1.14.21-.54.16-1.15-.14-1.67l-3.39-5.71c-1.19-2.11-2.13-4.22-2.78-6.24l-.23-.79c-1.27-3.92-4.38-6.93-8.25-8.03l-.58-.19c-2.19-.63-4.5-.63-6.73.01l-.5.17c-2.6.74-4.82,2.3-6.39,4.38-2.03-1.93-4.75-3.12-7.76-3.12-6.23,0-11.3,5.07-11.3,11.3,0,8.56,5.18,15.78,11.3,15.78Zm18.19-2.09c-4.2,0-7.91-5.12-8.36-11.23,6.54,1.21,9.81-1.41,11.32-3.48,1.4,1.53,3.25,2.14,5.43,1.79,0,.14,0,.29,0,.43,0,6.65-3.93,12.48-8.41,12.48Zm-3.45-24.35l.5-.17c1.83-.53,3.75-.53,5.54-.01l.58.19c3.28.93,5.87,3.45,6.93,6.71l.23.78c.7,2.17,1.69,4.41,2.96,6.66l3.34,5.63-1.11.28c-2.49.61-5.12,1.07-7.84,1.4,1.67-2.58,2.71-5.96,2.71-9.61,0-.63-.05-1.22-.15-1.82-.05-.28-.21-.53-.46-.68-.24-.15-.54-.19-.81-.11-2.38.7-3.98.14-5.18-1.81-.2-.33-.57-.5-.92-.47-.4-.01-.77.18-.96.54-.83,1.64-3.57,5.24-11.1,3.38-.3-.07-.61,0-.86.18-.24.19-.38.48-.38.79,0,3.68,1.06,7.08,2.75,9.67-2.7-.31-5.43-.79-8.14-1.46l-1.12-.28,3.3-5.63c1.18-1.97,2.18-4.21,2.97-6.68l.22-.75c1.02-3.27,3.61-5.79,6.98-6.74Zm-14.74,1.35c2.62,0,4.99,1.1,6.68,2.85-.32.63-.61,1.27-.83,1.96l-.22.74c-.07.21-.15.41-.22.62-.54-.36-1.02-.82-1.37-1.4-.07-.26-.25-.48-.5-.61-.49-.25-1.09-.05-1.34.44-1.42,2.8-5.93,3.92-11.32,2.85.86-4.24,4.62-7.45,9.12-7.45Zm-5.25,9.85c3.65,0,6.62-1.08,8.33-3.07.47.52,1.02.94,1.61,1.28-.55,1.33-1.16,2.58-1.85,3.73l-3.36,5.74c-.31.53-.35,1.19-.11,1.75.24.55.71.94,1.27,1.07l1.26.31c.83.21,1.67.39,2.51.56-1.34,1.16-2.85,1.85-4.42,1.85-4.92,0-9.24-6.36-9.3-13.64,1.41.27,2.78.41,4.05.41Z"></path></svg>